<?xml version="1.0" standalone="no"?>
<svg xmlns="http://www.w3.org/2000/svg" id="svg-step-4b" width="700" height="200" viewBox="0 0 700 200">
            <g transform="translate(50,50)">
                <!-- 16 top sectors as arcs arranged in a line -->
                <g id="arcs-4b">
                <!-- Each sector is a wide arc (like a cone) -->
                <path d="M10,80 L10,0 A40,40 0 0 1 30,0 Z" fill="rgba(231, 76, 60, 0.7)" stroke="#e74c3c" stroke-width="1"/>
                <path d="M30,80 L30,0 A40,40 0 0 1 50,0 Z" fill="rgba(231, 76, 60, 0.7)" stroke="#e74c3c" stroke-width="1"/>
                <path d="M50,80 L50,0 A40,40 0 0 1 70,0 Z" fill="rgba(231, 76, 60, 0.7)" stroke="#e74c3c" stroke-width="1"/>
                <path d="M70,80 L70,0 A40,40 0 0 1 90,0 Z" fill="rgba(231, 76, 60, 0.7)" stroke="#e74c3c" stroke-width="1"/>
                <path d="M90,80 L90,0 A40,40 0 0 1 110,0 Z" fill="rgba(231, 76, 60, 0.7)" stroke="#e74c3c" stroke-width="1"/>
                <path d="M110,80 L110,0 A40,40 0 0 1 130,0 Z" fill="rgba(231, 76, 60, 0.7)" stroke="#e74c3c" stroke-width="1"/>
                <path d="M130,80 L130,0 A40,40 0 0 1 150,0 Z" fill="rgba(231, 76, 60, 0.7)" stroke="#e74c3c" stroke-width="1"/>
                <path d="M150,80 L150,0 A40,40 0 0 1 170,0 Z" fill="rgba(231, 76, 60, 0.7)" stroke="#e74c3c" stroke-width="1"/>
                <path d="M170,80 L170,0 A40,40 0 0 1 190,0 Z" fill="rgba(231, 76, 60, 0.7)" stroke="#e74c3c" stroke-width="1"/>
                <path d="M190,80 L190,0 A40,40 0 0 1 210,0 Z" fill="rgba(231, 76, 60, 0.7)" stroke="#e74c3c" stroke-width="1"/>
                <path d="M210,80 L210,0 A40,40 0 0 1 230,0 Z" fill="rgba(231, 76, 60, 0.7)" stroke="#e74c3c" stroke-width="1"/>
                <path d="M230,80 L230,0 A40,40 0 0 1 250,0 Z" fill="rgba(231, 76, 60, 0.7)" stroke="#e74c3c" stroke-width="1"/>
                <path d="M250,80 L250,0 A40,40 0 0 1 270,0 Z" fill="rgba(231, 76, 60, 0.7)" stroke="#e74c3c" stroke-width="1"/>
                <path d="M270,80 L270,0 A40,40 0 0 1 290,0 Z" fill="rgba(231, 76, 60, 0.7)" stroke="#e74c3c" stroke-width="1"/>
                <path d="M290,80 L290,0 A40,40 0 0 1 310,0 Z" fill="rgba(231, 76, 60, 0.7)" stroke="#e74c3c" stroke-width="1"/>
                <path d="M310,80 L310,0 A40,40 0 0 1 330,0 Z" fill="rgba(231, 76, 60, 0.7)" stroke="#e74c3c" stroke-width="1"/>
                </g>
                <text x="160" y="-15" font-family="Arial" font-size="14" fill="#e74c3c" text-anchor="middle">Top 16 sectors as arcs (cone-like)</text>
                <text x="160" y="110" font-family="Arial" font-size="12" fill="#2c3e50" text-anchor="middle">Width = πr (half circumference)</text>
                <text x="-20" y="45" font-family="Arial" font-size="12" fill="#2c3e50" text-anchor="middle">r</text>
            </g>
        </svg>