<?xml version="1.0" standalone="no"?>
<svg xmlns="http://www.w3.org/2000/svg" id="svg-step-4c" width="700" height="200" viewBox="0 0 700 200">
            <g transform="translate(50,50)">
                <!-- 16 bottom sectors as arcs arranged in a line -->
                <g id="arcs-4c">
                <!-- Each sector is a wide arc (like a cone, inverted) -->
                <path d="M10,0 L10,80 A40,40 0 0 0 30,80 Z" fill="rgba(46, 204, 113, 0.7)" stroke="#2ecc71" stroke-width="1"/>
                <path d="M30,0 L30,80 A40,40 0 0 0 50,80 Z" fill="rgba(46, 204, 113, 0.7)" stroke="#2ecc71" stroke-width="1"/>
                <path d="M50,0 L50,80 A40,40 0 0 0 70,80 Z" fill="rgba(46, 204, 113, 0.7)" stroke="#2ecc71" stroke-width="1"/>
                <path d="M70,0 L70,80 A40,40 0 0 0 90,80 Z" fill="rgba(46, 204, 113, 0.7)" stroke="#2ecc71" stroke-width="1"/>
                <path d="M90,0 L90,80 A40,40 0 0 0 110,80 Z" fill="rgba(46, 204, 113, 0.7)" stroke="#2ecc71" stroke-width="1"/>
                <path d="M110,0 L110,80 A40,40 0 0 0 130,80 Z" fill="rgba(46, 204, 113, 0.7)" stroke="#2ecc71" stroke-width="1"/>
                <path d="M130,0 L130,80 A40,40 0 0 0 150,80 Z" fill="rgba(46, 204, 113, 0.7)" stroke="#2ecc71" stroke-width="1"/>
                <path d="M150,0 L150,80 A40,40 0 0 0 170,80 Z" fill="rgba(46, 204, 113, 0.7)" stroke="#2ecc71" stroke-width="1"/>
                <path d="M170,0 L170,80 A40,40 0 0 0 190,80 Z" fill="rgba(46, 204, 113, 0.7)" stroke="#2ecc71" stroke-width="1"/>
                <path d="M190,0 L190,80 A40,40 0 0 0 210,80 Z" fill="rgba(46, 204, 113, 0.7)" stroke="#2ecc71" stroke-width="1"/>
                <path d="M210,0 L210,80 A40,40 0 0 0 230,80 Z" fill="rgba(46, 204, 113, 0.7)" stroke="#2ecc71" stroke-width="1"/>
                <path d="M230,0 L230,80 A40,40 0 0 0 250,80 Z" fill="rgba(46, 204, 113, 0.7)" stroke="#2ecc71" stroke-width="1"/>
                <path d="M250,0 L250,80 A40,40 0 0 0 270,80 Z" fill="rgba(46, 204, 113, 0.7)" stroke="#2ecc71" stroke-width="1"/>
                <path d="M270,0 L270,80 A40,40 0 0 0 290,80 Z" fill="rgba(46, 204, 113, 0.7)" stroke="#2ecc71" stroke-width="1"/>
                <path d="M290,0 L290,80 A40,40 0 0 0 310,80 Z" fill="rgba(46, 204, 113, 0.7)" stroke="#2ecc71" stroke-width="1"/>
                <path d="M310,0 L310,80 A40,40 0 0 0 330,80 Z" fill="rgba(46, 204, 113, 0.7)" stroke="#2ecc71" stroke-width="1"/>
                </g>
                <text x="160" y="110" font-family="Arial" font-size="14" fill="#2ecc71" text-anchor="middle">Bottom 16 sectors as arcs (cone-like, inverted)</text>
                <text x="160" y="-15" font-family="Arial" font-size="12" fill="#2c3e50" text-anchor="middle">Width = πr (half circumference)</text>
                <text x="-20" y="45" font-family="Arial" font-size="12" fill="#2c3e50" text-anchor="middle">r</text>
            </g>
        </svg>