<?xml version="1.0" standalone="no"?>
<svg xmlns="http://www.w3.org/2000/svg" id="svg-step-4d" width="700" height="200" viewBox="0 0 700 200">
            <g transform="translate(50,50)">
                <!-- Top sectors -->
                <polygon points="0,0 20,0 10,80" fill="rgba(231, 76, 60, 0.7)" stroke="#e74c3c" stroke-width="1"/>
                <polygon points="40,0 60,0 50,80" fill="rgba(231, 76, 60, 0.7)" stroke="#e74c3c" stroke-width="1"/>
                <polygon points="80,0 100,0 90,80" fill="rgba(231, 76, 60, 0.7)" stroke="#e74c3c" stroke-width="1"/>
                <polygon points="120,0 140,0 130,80" fill="rgba(231, 76, 60, 0.7)" stroke="#e74c3c" stroke-width="1"/>
                <polygon points="160,0 180,0 170,80" fill="rgba(231, 76, 60, 0.7)" stroke="#e74c3c" stroke-width="1"/>
                <polygon points="200,0 220,0 210,80" fill="rgba(231, 76, 60, 0.7)" stroke="#e74c3c" stroke-width="1"/>
                <polygon points="240,0 260,0 250,80" fill="rgba(231, 76, 60, 0.7)" stroke="#e74c3c" stroke-width="1"/>
                <polygon points="280,0 300,0 290,80" fill="rgba(231, 76, 60, 0.7)" stroke="#e74c3c" stroke-width="1"/>
                
                <!-- Bottom sectors (shifted by 20 units) -->
                <polygon points="20,80 40,80 30,0" fill="rgba(46, 204, 113, 0.7)" stroke="#2ecc71" stroke-width="1"/>
                <polygon points="60,80 80,80 70,0" fill="rgba(46, 204, 113, 0.7)" stroke="#2ecc71" stroke-width="1"/>
                <polygon points="100,80 120,80 110,0" fill="rgba(46, 204, 113, 0.7)" stroke="#2ecc71" stroke-width="1"/>
                <polygon points="140,80 160,80 150,0" fill="rgba(46, 204, 113, 0.7)" stroke="#2ecc71" stroke-width="1"/>
                <polygon points="180,80 200,80 190,0" fill="rgba(46, 204, 113, 0.7)" stroke="#2ecc71" stroke-width="1"/>
                <polygon points="220,80 240,80 230,0" fill="rgba(46, 204, 113, 0.7)" stroke="#2ecc71" stroke-width="1"/>
                <polygon points="260,80 280,80 270,0" fill="rgba(46, 204, 113, 0.7)" stroke="#2ecc71" stroke-width="1"/>
                <polygon points="300,80 320,80 310,0" fill="rgba(46, 204, 113, 0.7)" stroke="#2ecc71" stroke-width="1"/>
                
                <text x="160" y="110" font-family="Arial" font-size="14" fill="#2c3e50" text-anchor="middle">Interlocking pattern like teeth of combs</text>
                <text x="160" y="-15" font-family="Arial" font-size="12" fill="#2c3e50" text-anchor="middle">Width = πr</text>
                <text x="-20" y="45" font-family="Arial" font-size="12" fill="#2c3e50" text-anchor="middle">r</text>
            </g>
        </svg>