<svg xmlns="http://www.w3.org/2000/svg" id="svg-step6" width="500" height="180" viewBox="0 0 500 180">
            <!-- Triangle filled with many thin strips -->
            <defs>
                <clipPath id="triangle-clip">
                    <polygon points="50,160 250,20 450,160"/>
                </clipPath>
            </defs>
            <g clip-path="url(#triangle-clip)">
                <!-- Many thin strips, fully filling the triangle -->
                <rect x="50" y="160" width="400" height="3" fill="#3498db" fill-opacity="0.7"/>
                <rect x="55" y="155" width="390" height="3" fill="#e67e22" fill-opacity="0.7"/>
                <rect x="60" y="150" width="380" height="3" fill="#e74c3c" fill-opacity="0.7"/>
                <rect x="65" y="145" width="370" height="3" fill="#2ecc71" fill-opacity="0.7"/>
                <rect x="70" y="140" width="360" height="3" fill="#9b59b6" fill-opacity="0.7"/>
                <rect x="75" y="135" width="350" height="3" fill="#3498db" fill-opacity="0.7"/>
                <rect x="80" y="130" width="340" height="3" fill="#e67e22" fill-opacity="0.7"/>
                <rect x="85" y="125" width="330" height="3" fill="#e74c3c" fill-opacity="0.7"/>
                <rect x="90" y="120" width="320" height="3" fill="#2ecc71" fill-opacity="0.7"/>
                <rect x="95" y="115" width="310" height="3" fill="#9b59b6" fill-opacity="0.7"/>
                <rect x="100" y="110" width="300" height="3" fill="#3498db" fill-opacity="0.7"/>
                <rect x="105" y="105" width="290" height="3" fill="#e67e22" fill-opacity="0.7"/>
                <rect x="110" y="100" width="280" height="3" fill="#e74c3c" fill-opacity="0.7"/>
                <rect x="115" y="95" width="270" height="3" fill="#2ecc71" fill-opacity="0.7"/>
                <rect x="120" y="90" width="260" height="3" fill="#9b59b6" fill-opacity="0.7"/>
                <rect x="125" y="85" width="250" height="3" fill="#3498db" fill-opacity="0.7"/>
                <rect x="130" y="80" width="240" height="3" fill="#e67e22" fill-opacity="0.7"/>
                <rect x="135" y="75" width="230" height="3" fill="#e74c3c" fill-opacity="0.7"/>
                <rect x="140" y="70" width="220" height="3" fill="#2ecc71" fill-opacity="0.7"/>
                <rect x="145" y="65" width="210" height="3" fill="#9b59b6" fill-opacity="0.7"/>
                <rect x="150" y="60" width="200" height="3" fill="#3498db" fill-opacity="0.7"/>
                <rect x="155" y="55" width="190" height="3" fill="#e67e22" fill-opacity="0.7"/>
                <rect x="160" y="50" width="180" height="3" fill="#e74c3c" fill-opacity="0.7"/>
                <rect x="165" y="45" width="170" height="3" fill="#2ecc71" fill-opacity="0.7"/>
                <rect x="170" y="40" width="160" height="3" fill="#9b59b6" fill-opacity="0.7"/>
                <rect x="175" y="35" width="150" height="3" fill="#3498db" fill-opacity="0.7"/>
                <rect x="180" y="30" width="140" height="3" fill="#e67e22" fill-opacity="0.7"/>
                <rect x="185" y="25" width="130" height="3" fill="#e74c3c" fill-opacity="0.7"/>
                <rect x="190" y="20" width="120" height="3" fill="#2ecc71" fill-opacity="0.7"/>
            </g>
            <!-- Triangle outline on top -->
            <polygon points="50,160 250,20 450,160" fill="none" stroke="#2c3e50" stroke-width="2"/>
        </svg>